<svg xmlns="http://www.w3.org/2000/svg" viewBox="0 0 512 512" role="img" aria-label="NOUS A11Z device icon">
  <rect x="42" y="158" width="428" height="196" rx="42" fill="#f8fafc" stroke="#cfd8e3" stroke-width="8"/>
  <path d="M42 248h-34" stroke="#cfd8e3" stroke-width="18" stroke-linecap="round"/>
  <circle cx="110" cy="256" r="38" fill="#fff" stroke="#cfd8e3" stroke-width="6"/>
  <path d="M110 235v25" stroke="#7b8794" stroke-width="8" stroke-linecap="round"/>
  <path d="M92 254a21 21 0 1 0 36 0" fill="none" stroke="#7b8794" stroke-width="8" stroke-linecap="round"/>
  <g fill="#fff" stroke="#cfd8e3" stroke-width="7">
    <circle cx="220" cy="256" r="48"/>
    <circle cx="326" cy="256" r="48"/>
    <circle cx="432" cy="256" r="48"/>
  </g>
  <g fill="#46b946">
    <circle cx="220" cy="181" r="9"/>
    <circle cx="326" cy="181" r="9"/>
    <circle cx="432" cy="181" r="9"/>
  </g>
  <g fill="#4f5b66">
    <circle cx="202" cy="246" r="8"/>
    <circle cx="238" cy="246" r="8"/>
    <rect x="215" y="278" width="10" height="22" rx="3"/>
    <circle cx="308" cy="246" r="8"/>
    <circle cx="344" cy="246" r="8"/>
    <rect x="321" y="278" width="10" height="22" rx="3"/>
    <circle cx="414" cy="246" r="8"/>
    <circle cx="450" cy="246" r="8"/>
    <rect x="427" y="278" width="10" height="22" rx="3"/>
  </g>
  <g fill="#1f2933">
    <rect x="84" y="320" width="10" height="32" rx="2"/>
    <rect x="104" y="320" width="10" height="32" rx="2"/>
    <rect x="124" y="320" width="10" height="32" rx="2"/>
  </g>
</svg>
