<svg xmlns="http://www.w3.org/2000/svg" viewBox="0 0 512 512" role="img" aria-label="NOUS A11Z app icon">
  <defs>
    <linearGradient id="bg" x1="0" y1="0" x2="1" y2="1">
      <stop offset="0" stop-color="#1A73E8"/>
      <stop offset="1" stop-color="#063B88"/>
    </linearGradient>
  </defs>
  <rect width="512" height="512" rx="104" fill="url(#bg)"/>
  <g fill="#fff" font-family="Arial, Helvetica, sans-serif" font-weight="800" text-anchor="middle">
    <text x="256" y="122" font-size="70">NOUS</text>
    <text x="256" y="194" font-size="78">A11Z</text>
  </g>
  <rect x="74" y="250" width="364" height="116" rx="28" fill="#f7f9fb"/>
  <rect x="74" y="250" width="364" height="116" rx="28" fill="none" stroke="#d7dde6" stroke-width="4"/>
  <circle cx="132" cy="308" r="26" fill="#fff" stroke="#c6ced8" stroke-width="4"/>
  <path d="M132 294v18" stroke="#6b7580" stroke-width="6" stroke-linecap="round"/>
  <path d="M120 306a14 14 0 1 0 24 0" fill="none" stroke="#6b7580" stroke-width="6" stroke-linecap="round"/>
  <g fill="#fff" stroke="#c6ced8" stroke-width="5">
    <circle cx="220" cy="308" r="36"/>
    <circle cx="302" cy="308" r="36"/>
    <circle cx="384" cy="308" r="36"/>
  </g>
  <g fill="#46b946">
    <circle cx="220" cy="246" r="9"/>
    <circle cx="302" cy="246" r="9"/>
    <circle cx="384" cy="246" r="9"/>
  </g>
  <g fill="#54606b">
    <circle cx="207" cy="300" r="7"/>
    <circle cx="233" cy="300" r="7"/>
    <rect x="216" y="328" width="8" height="16" rx="2"/>
    <circle cx="289" cy="300" r="7"/>
    <circle cx="315" cy="300" r="7"/>
    <rect x="298" y="328" width="8" height="16" rx="2"/>
    <circle cx="371" cy="300" r="7"/>
    <circle cx="397" cy="300" r="7"/>
    <rect x="380" y="328" width="8" height="16" rx="2"/>
  </g>
</svg>
